# xmcd
# 
# Track frame offsets:
#     150
#     1779
#     23825
#     53760
#     70421
#     93786
#     98555
#     129561
#     158424
#     179279
#     208381
#     226695
#     235434
#     258818
#     280698
#     295902
# 
# Disc length: 4110
# 
# Revision: 7
# Processed by: cddbd v1.5.2PL0 Copyright (c) Steve Scherf et al.
# Submitted via: BonkEnc v1.0.8
# 
DISCID=ca100c10
DTITLE=Lorenzo Live - Autobiografia Di Una Festa
DYEAR=2000
DGENRE=Rap
TTITLE0=Ahahahahahah-Uuh-Uh
TTITLE1=Un Raggio Di Sole
TTITLE2=Dal Basso (con Michael Franti)
TTITLE3=Non C'è Libertà
TTITLE4=Questa E' La Mia Casa
TTITLE5=Grazie!!
TTITLE6=Penso Positivo
TTITLE7=La Vita Nell'Era Spaziale
TTITLE8=Dolce Fare Niente
TTITLE9=Serenata Rap
TTITLE10=Stella Cometa
TTITLE11=La Linea D'Ombra (Intro)
TTITLE12=Il Mio Nome E' Mai +
TTITLE13=Funky Beat-O
TTITLE14=Rappers' Delight
TTITLE15=Non M'Annoio
EXTD=YEAR: 2000
EXTT0=
EXTT1=
EXTT2=
EXTT3=
EXTT4=
EXTT5=
EXTT6=
EXTT7=
EXTT8=
EXTT9=
EXTT10=
EXTT11=
EXTT12=
EXTT13=
EXTT14=
EXTT15=
PLAYORDER=
